<?xml version="1.0" encoding="UTF-8"?>
<svg id="Layer_1" data-name="Layer 1" xmlns="http://www.w3.org/2000/svg" viewBox="0 0 352.95 47.67">
  <defs>
    <style>
      .cls-1 {
        fill: #111;
      }

      .cls-2 {
        fill: #fb8f37;
      }
    </style>
  </defs>
  <path class="cls-2" d="M235.58,34.81c-.3.3-1.49,1.13-3.03,2.08l.3.18c.89.71,1.9,1.54,2.02,2.67s-.65,3.21-2.44,3.21c-.95,0-2.26-1.07-2.97-1.72-.06.77-.18,1.37-.24,1.6-.12.77-1.31,2.02-2.61,2.02-1.6,0-2.02-1.37-2.2-2.44,0-.36-.06-.89-.12-1.49-1.19.48-2.26.83-3.03.83-.42,0-1.66-.18-1.84-1.31-.12-.83,1.9-2.73,4.1-4.4-1.49-1.31-2.91-2.38-3.92-2.91-.48-.24-.83-.71-.89-1.25-.18-1.49,1.72-2.32,2.85-2.32,1.07,0,2.2.77,3.15,1.37.12-1.54.48-2.79.77-3.15.77-.77,1.78-1.07,2.67-1.07,1.6,0,2.26,1.07,2.44,2.26.06.71,0,1.72,0,2.85,1.19-.59,2.2-1.01,2.67-1.01,1.31,0,2.55,1.37,2.67,2.38.12.59-.06,1.13-.36,1.6Z"/>
  <path class="cls-1" d="M51.21,35.5c-1.08,1.94-4.9,3.17-6.55,3.17-4.25,0-3.24-9-2.95-11.88-3.31,2.23-10.58,8.35-12.89,10.3-1.3,1.08-2.88,1.3-4.03,1.3-1.8,0-4.1-.58-4.82-1.8-.79-1.3.65-9.94,1.01-12.31-5.54,5.47-11.45,11.81-14.19,14.76-1.01,1.08-2.95,1.3-3.74,1.3-1.66,0-3.24-.94-2.88-2.3.43-2.09,22.47-25.85,24.27-27.43,1.87-1.58,4.54-2.95,6.48-2.95,1.37,0,2.52.72,2.52,2.3-.07.86-.29,2.09-.5,3.53-.86,4.46-1.87,9-2.09,13.47,4.32-2.95,9.29-6.34,11.09-7.78,2.09-1.51,5.69-3.1,7.85-3.1.5,0,1.22.07,1.73.5,1.15.94,1.15,13.25.29,17.35-.14.5-.29,1.08-.58,1.58Z"/>
  <path class="cls-1" d="M93.98,42.56c-.29,1.37-.72,2.38-1.15,2.81-1.37,1.3-3.89,2.3-5.54,2.3-.72,0-1.73-.14-2.16-1.01-.58-1.08.86-13.18,1.01-15.55-6.12,1.44-14.62,2.59-17.14,2.95-2.09,2.38-3.74,5.04-5.54,7.56-1.15,1.66-1.73,2.45-3.96,2.45-1.73,0-4.1-.79-3.6-3.17,1.37-6.26,27.65-35.64,29.52-36.51,2.3-1.08,5.11-1.66,7.06-1.66,1.8,0,3.02.65,3.24,1.66,1.37,6.84-.22,31.11-1.73,38.16ZM74.9,26.43c5.54-1.58,9.5-2.3,11.59-2.59.36-3.6,1.73-12.6,1.3-12.53-.36,0-7.27,7.99-12.89,15.12Z"/>
  <path class="cls-1" d="M137.69,21.67c-1.37,3.24-3.02,7.34-4.82,12.17-.79,2.23-4.75,3.02-5.98,3.02-.5,0-1.22-.07-1.8-.5-1.01-.94-3.46-4.1-5.76-7.2-1.3-1.8-2.66-3.6-4.03-5.33-.58,1.73-1.22,3.6-1.8,5.47-1.01,3.02-2.02,6.05-2.81,7.56-.5,1.01-1.51,1.87-2.81,1.87-2.59,0-4.03-3.17-3.67-5.04.58-2.59,5.9-17.5,7.2-21.24.58-1.94,3.24-2.45,4.32-2.45.5,0,1.37.07,1.87.58.29.29,1.15,1.37,2.09,2.66,2.81,3.74,5.47,7.56,8.42,11.16.5-1.44,1.15-2.81,1.73-4.25,1.51-3.6,3.17-7.63,3.82-8.42.86-1.08,2.16-1.44,3.1-1.44,2.45,0,4.25,1.8,3.67,4.25-.5,2.16-1.87,5.04-2.74,7.13Z"/>
  <path class="cls-1" d="M146.39,44.5h-.65c-2.74,0-3.1-4.68-1.94-10.15,2.3-10.87,10.08-29.31,11.38-29.52,3.96-.43,7.42-.58,10.51-.58,9.86,0,15.63,1.94,17.57,3.38,2.74,2.09,5.47,4.39,4.54,8.78-2.66,12.39-34.49,26.71-41.4,28.08ZM162.31,12.03c-1.3,0-2.3-.07-2.74.22-1.15.72-5.33,14.54-7.06,21.67,12.38-4.75,23.04-14.11,26.64-18.65,1.8-2.38-11.67-3.24-16.85-3.24Z"/>
  <path class="cls-1" d="M210.04,28.37c-1.3,1.15-3.53,12.24-5.4,14.19-.72.79-1.66,1.08-2.45,1.08-1.8,0-4.03-1.94-4.75-2.66-.43-.36-.5-1.44-.29-2.74.72-3.17,3.17-9.94,3.89-12.03-1.94-3.46-8.86-18.29-8.42-20.16.43-2.02,2.88-2.52,4.03-2.52,1.22,0,3.46.43,3.96,1.87.29.86,1.44,4.54,2.66,7.99,1.01,2.88,2.02,5.47,2.45,6.55l.22-.29c2.81-3.46,5.47-6.91,8.21-10.37,2.66-3.31,5.47-6.55,7.06-7.71,1.51-1.08,3.1-1.58,4.46-1.58,1.8,0,3.46.94,2.95,3.1-.79,3.02-15.41,22.39-18.58,25.27Z"/>
  <path class="cls-1" d="M273.66,22.32c-2.3,7.34-12.53,16.2-20.16,16.2-7.06,0-10.23-5.69-9-11.45,1.51-7.06,10.44-19.08,20.67-19.08,1.3,0,3.17.14,4.25,1.51,2.95.14,6.7,2.23,5.04,9.94-.14.86-.43,1.87-.79,2.88ZM265.45,16.27c-4.97,0-12.89,7.56-13.83,11.88-.22,1.15,0,1.8,1.15,1.8,2.38,0,6.77-2.3,8.57-4.18,2.38-2.45,5.04-7.2,5.54-9.14l.07-.07c-.5-.22-1.01-.29-1.51-.29Z"/>
  <path class="cls-1" d="M320.46,10.08c-.94.36-1.94.43-2.88.58-3.74.5-7.49.79-11.23,1.15-1.3.14-2.16.07-2.3.29-1.01,1.3-6.55,21.24-7.42,24.34-.72,2.66-1.37,4.82-1.66,5.4-.36.79-1.87,1.58-3.46,1.58-1.94,0-5.33-.86-5.62-4.1-.07-.5.07-1.15.22-1.8,1.08-4.97,6.05-19.44,7.78-24.34-2.3.14-6.19.43-8.42.43-.58,0-1.01,0-1.37-.07-2.38-.22-6.05-2.66-5.62-4.9.36-1.66,2.45-2.23,3.89-2.23.72,0,1.58.07,2.45.07.29,0,.58,0,.86-.07,4.25-.36,12.6-2.45,25.06-2.45,2.74,0,5.62.07,8.79.36,1.87.14,3.74,1.51,3.31,3.53-.29,1.22-1.37,1.94-2.38,2.23Z"/>
  <path class="cls-1" d="M350.77,11.59c-.86.29-1.73.36-2.66.5-4.83.58-10.15.86-14.98,2.16-3.17,5.62-5.18,10.87-6.05,13.9,3.31-.65,6.77-1.87,10.08-1.87,1.94,0,6.55,1.51,5.98,4.46-.5,2.16-3.02,2.38-4.68,2.66-4.54.79-9.22,1.22-13.83,2.38-.65,2.02-2.45,7.27-3.6,8.86-.86,1.22-2.81,2.74-4.75,2.74-.43,0-.86-.14-1.3-.29-1.15-.58-1.58-2.88-.58-7.7.43-2.09,1.15-4.83,2.09-8.28,1.15-4.03,9.29-23.11,10.44-23.4,7.06-1.8,15.7-3.38,19.51-3.38,2.52,0,5.11.94,6.19,3.1.36.79.5,1.37.36,1.94-.22,1.22-1.22,1.87-2.23,2.23Z"/>
</svg>