<?xml version="1.0" encoding="UTF-8"?>
<svg id="Layer_1" data-name="Layer 1" xmlns="http://www.w3.org/2000/svg" viewBox="0 0 160 160">
  <defs>
    <style>
      .cls-1 {
        fill: #221f1f;
      }
    </style>
  </defs>
  <path class="cls-1" d="M32.85,105.41c-1.49,0-2.91-.54-3.53-1.34-.3-.39-.39-.8-.26-1.27.86-3.25,35.15-40.51,38.72-43.64,3.15-2.66,7.2-4.53,9.84-4.53.96,0,3.18.28,3.18,2.83-.08.9-.28,2.17-.51,3.65l-.29,1.89-.6,3.04c-1.21,6.13-2.47,12.47-2.77,18.68l-.08,1.74,2.37-1.62c6.64-4.53,14.15-9.67,16.94-11.9,3.17-2.3,8.8-4.78,12.07-4.78,1,0,1.75.2,2.21.6,1.33,1.54,1.69,19.85.18,27.04l-.07.23c-.2.71-.4,1.44-.76,2.06-1.52,2.74-7.25,4.65-9.78,4.65-.94,0-1.69-.33-2.32-1.02-2.96-3.28-1.97-13.09-1.6-16.78l.22-2.17-1.53,1.03c-4.59,3.09-13.84,10.74-20.78,16.6-1.49,1.24-3.49,1.88-5.92,1.88-2.69,0-6.06-.86-7-2.46-.67-1.09-.15-7.14,1.54-17.98l.58-3.81-1.86,1.84c-6.35,6.27-14.03,14.25-22.82,23.74-1.33,1.43-4.1,1.8-5.38,1.8Z"/>
</svg>