<?xml version="1.0" encoding="UTF-8"?>
<svg id="Layer_1" data-name="Layer 1" xmlns="http://www.w3.org/2000/svg" viewBox="0 0 160 160">
  <defs>
    <style>
      .cls-1 {
        fill: #221f1f;
      }
    </style>
  </defs>
  <path class="cls-1" d="M32.79,105.44c-1.49,0-2.91-.54-3.53-1.34-.3-.39-.39-.81-.26-1.27.86-3.25,35.2-40.56,38.76-43.7,3.15-2.66,7.21-4.53,9.85-4.53.96,0,3.19.28,3.19,2.84-.08.9-.28,2.17-.51,3.65l-.29,1.89-.6,3.04c-1.21,6.14-2.47,12.49-2.77,18.71l-.08,1.75,2.37-1.62c6.64-4.54,14.17-9.68,16.96-11.92,3.18-2.3,8.81-4.79,12.08-4.79,1,0,1.75.2,2.21.6,1.33,1.54,1.7,19.87.18,27.08l-.07.23c-.2.71-.41,1.44-.76,2.06-1.52,2.74-7.26,4.66-9.79,4.66-.94,0-1.7-.33-2.32-1.02-2.96-3.28-1.97-13.11-1.6-16.8l.22-2.17-1.53,1.03c-4.6,3.1-13.85,10.75-20.81,16.62-1.5,1.25-3.49,1.88-5.93,1.88-2.7,0-6.07-.86-7.01-2.47-.67-1.09-.15-7.15,1.54-18l.58-3.81-1.86,1.84c-6.36,6.27-14.04,14.27-22.84,23.77-1.33,1.43-4.11,1.81-5.39,1.81Z"/>
  <path class="cls-1" d="M154.13,26.81c-4.65,2.98-9.88,4.2-15.24,4.69-2.63-8.07-8.31-15.12-16.29-18.38-3.71-1.51-7.95-2.11-11.9-1.19-3.79.88-5.88,4.97-6.29,8.58,0,.07,0,.13-.01.19-24.78-14.3-57.3-10.38-78.43,9.73C12.56,43.2,5.25,61.18,2.23,79.19c-1.53,9.11-2.46,18.53-.88,27.69,1.55,9.02,6.34,16.63,13.53,22.21,7.35,5.71,16.19,9.49,24.92,12.54,9.56,3.33,19.51,5.42,29.58,6.38,16.05,1.52,33.38-.12,47.46-8.58,6.42-3.86,12.03-9.24,15.52-15.92,4.67-8.93,5.17-19.1,5.84-28.96.75-11.07,1.49-22.14,2.24-33.21.5-7.49,1.14-15.25.06-22.75,1.49-.15,2.97-.34,4.44-.61,4.55-.82,8.94-2.42,12.84-4.92,3.91-2.5.28-8.77-3.65-6.25ZM111.66,20.76c.36-1.6.81-1.86,1.71-1.97,3.65-.44,7.3.98,10.24,3.05,3.6,2.54,6.03,6.04,7.63,9.95-.45,0-.9,0-1.35,0-5.1-.03-12.45-.18-16.14-4.23-.16-.3-.39-.6-.68-.88-.54-.78-.97-1.66-1.24-2.7-.28-1.04-.4-2.17-.16-3.23ZM133.61,41.85c.79,8.82-.29,17.8-.88,26.6-.64,9.49-1.27,18.98-1.92,28.47-.56,8.17-1.12,16.72-5.27,24-3.14,5.51-7.91,9.77-13.39,12.87-12.06,6.83-26.46,8.18-40.05,7.21-16.69-1.2-34.22-5.88-48.56-14.68-6.59-4.04-11.97-9.5-14.22-17.05-2.32-7.8-1.73-16.26-.7-24.23,2.03-15.64,7.16-31.68,17.34-43.98,19.84-23.97,57.19-29.67,81.76-9.46.09.07.18.12.27.18,2.4,2.79,5.75,4.86,9.42,5.92,4.34,1.25,8.99,1.35,13.47,1.35.79,0,1.58-.02,2.36-.03.15.95.27,1.9.36,2.85Z"/>
</svg>