<?xml version="1.0" encoding="UTF-8"?>
<svg id="Layer_1" data-name="Layer 1" xmlns="http://www.w3.org/2000/svg" viewBox="0 0 160 160">
  <defs>
    <style>
      .cls-1 {
        fill: #221f1f;
      }
    </style>
  </defs>
  <path class="cls-1" d="M154.04,26.87c-4.64,2.97-9.87,4.2-15.22,4.68-2.63-8.06-8.3-15.1-16.26-18.36-3.7-1.51-7.94-2.11-11.88-1.19-3.79.88-5.87,4.96-6.28,8.57,0,.07,0,.13-.01.19-24.75-14.28-57.23-10.37-78.33,9.72C12.64,43.25,5.35,61.21,2.33,79.19c-1.53,9.1-2.46,18.5-.88,27.66,1.55,9,6.33,16.61,13.51,22.19,7.34,5.7,16.17,9.48,24.89,12.52,9.54,3.33,19.49,5.42,29.55,6.37,16.03,1.51,33.34-.12,47.4-8.57,6.41-3.85,12.02-9.23,15.5-15.9,4.66-8.92,5.16-19.08,5.83-28.92.74-11.06,1.49-22.11,2.23-33.17.5-7.48,1.14-15.23.06-22.72,1.48-.15,2.96-.34,4.44-.6,4.54-.82,8.93-2.42,12.82-4.91,3.91-2.5.28-8.76-3.65-6.24ZM111.62,20.83c.36-1.59.81-1.86,1.7-1.96,3.65-.44,7.29.98,10.23,3.05,3.59,2.53,6.02,6.03,7.62,9.94-.45,0-.9,0-1.35,0-5.1-.03-12.44-.18-16.12-4.22-.16-.3-.39-.6-.68-.88-.54-.78-.97-1.66-1.24-2.7-.28-1.04-.4-2.17-.16-3.23ZM133.54,41.9c.79,8.81-.29,17.77-.88,26.56-.64,9.48-1.27,18.96-1.91,28.43-.56,8.16-1.12,16.69-5.26,23.97-3.13,5.51-7.9,9.75-13.38,12.86-12.05,6.82-26.43,8.17-40,7.2-16.66-1.2-34.17-5.88-48.5-14.66-6.58-4.04-11.95-9.49-14.2-17.03-2.32-7.79-1.73-16.24-.7-24.2,2.03-15.62,7.15-31.64,17.32-43.93,19.81-23.94,57.12-29.63,81.66-9.45.09.07.18.12.27.18,2.39,2.79,5.74,4.85,9.41,5.91,4.34,1.25,8.98,1.35,13.46,1.35.79,0,1.57-.02,2.36-.03.15.94.27,1.89.36,2.84Z"/>
</svg>